<svg xmlns="http://www.w3.org/2000/svg" viewBox="0 0 153.49832 94.78096"><defs><style>.cls-1{fill:#fff;}</style></defs><title>Asset 1</title><g id="Layer_2" data-name="Layer 2"><g id="Layer_1-2" data-name="Layer 1"><path class="cls-1" d="M17.59885,13.11449v5.86707H60.39359V30.7157H17.59885V44.17535H.34279V0h69.5767V13.11449Z"/><path class="cls-1" d="M153.49832,0V22.08767c0,19.60281-19.81077,23.46815-39.62049,23.46815-20.98276,0-39.68862-3.86534-39.68862-23.46815V0H91.44527V18.98156c0,10.90585,8.3518,12.63149,22.43256,12.63149,13.66669,0,22.36443-1.72564,22.36443-12.63149V0Z"/><path class="cls-1" d="M71.78546,63.9468H44.52128V94.6625H27.26522V63.9468H0V50.48716H71.78546Z"/><path class="cls-1" d="M151.54009,85.32464V94.781H134.284V87.39543c0-4.14144-2.78218-5.03879-13.826-5.03879H94.85015V94.781H77.59409V50.60561h53.3553c12.49364,0,22.15686,3.79629,22.15686,15.18528,0,8.17516-4.83895,11.25782-11.26712,12.418C149.26319,78.99239,151.54009,80.92781,151.54009,85.32464Zm-20.5907-14.495c2.76122,0,4.9008-.6903,4.9008-3.31315,0-2.4158-2.13958-3.10611-4.9008-3.10611H94.85015v6.41926Z"/></g></g></svg>