<?xml version="1.0" encoding="utf-8"?>
<!-- Generator: Adobe Illustrator 23.0.3, SVG Export Plug-In . SVG Version: 6.00 Build 0)  -->
<svg version="1.1" id="Layer_1" xmlns="http://www.w3.org/2000/svg" xmlns:xlink="http://www.w3.org/1999/xlink" x="0px" y="0px"
	 viewBox="0 0 1997.1 137.3" style="enable-background:new 0 0 1997.1 137.3;" xml:space="preserve">
<style type="text/css">
	.st0{fill:none;stroke:#FFFFFF;stroke-width:2;stroke-miterlimit:10;}
</style>
<title>innovation</title>
<g>
	<g id="Layer_1-2">
		<path class="st0" d="M0.5,7.8l41.8-0.1l0.4,128.4l-41.8,0.1L0.5,7.8z"/>
		<path class="st0" d="M75.1,7.6l56.6-0.2l119.1,83l0.4,0L250.9,7l39.8-0.1l0.4,128.4l-41.2,0.1L115.2,41.8l-0.2,0l0.3,94.1
			L75.4,136L75.1,7.6z"/>
		<path class="st0" d="M322.8,6.8l56.6-0.2l119.1,83l0.4,0l-0.2-83.4l39.8-0.1l0.4,128.4l-41.2,0.1L362.9,41.1l-0.2,0l0.3,94.1
			l-39.8,0.1L322.8,6.8z"/>
		<path class="st0" d="M565.6,69.8c-0.1-40.2,45.1-66.3,116.2-66.5c71.1-0.2,116.4,25.6,116.5,65.8c0.1,41.8-43.1,67.5-116.1,67.7
			C609.1,137,565.7,111.5,565.6,69.8z M755.7,69.4c-0.1-22.3-28.8-36.6-73.9-36.5c-45.1,0.1-73.7,14.7-73.7,36.9
			c0.1,23.6,26.9,37.4,73.9,37.3C729.1,107,755.8,93,755.7,69.4z"/>
		<path class="st0" d="M796.5,5.5l54.1-0.2l75.6,95.2l0.4,0l74.3-95.7l47.6-0.1L946,133.5l-46.3,0.1L796.5,5.5z"/>
		<path class="st0" d="M1194.5,107.4l-109.7,0.3l-18.9,25.4l-49.8,0.1L1117.8,4.5l49.2-0.1l102.5,128.1l-56.2,0.2L1194.5,107.4z
			 M1178,85.2l-38.2-51.4l-0.4,0l-38.1,51.6L1178,85.2z"/>
		<path class="st0" d="M1309.8,33.7l-75.2,0.2l-0.1-29.7l192.1-0.6l0.1,29.7l-75.2,0.2l0.3,98.8l-41.8,0.1L1309.8,33.7z"/>
		<path class="st0" d="M1451.4,3.6l41.8-0.1l0.4,128.4l-41.8,0.1L1451.4,3.6z"/>
		<path class="st0" d="M1521.1,67c-0.1-40.2,45.1-66.3,116.2-66.5c71.1-0.2,116.4,25.6,116.5,65.8c0.1,41.8-43.1,67.5-116.1,67.7
			C1564.6,134.2,1521.2,108.8,1521.1,67z M1711.2,66.7c-0.1-22.3-28.8-36.6-73.9-36.5c-45.1,0.1-73.7,14.7-73.7,36.9
			c0.1,23.6,26.9,37.4,73.9,37.3S1711.3,90.3,1711.2,66.7z"/>
		<path class="st0" d="M1780.5,2.6l56.6-0.2l119.1,83l0.4,0l-0.2-83.4l39.8-0.1l0.4,128.4l-41.2,0.1l-134.8-93.7l-0.2,0l0.3,94.1
			l-39.8,0.1L1780.5,2.6z"/>
	</g>
</g>
</svg>
